<?xml version="1.0" encoding="utf-8"?>
<!-- Generator: Adobe Illustrator 25.2.2, SVG Export Plug-In . SVG Version: 6.00 Build 0)  -->
<svg version="1.1" id="Layer_28" xmlns="http://www.w3.org/2000/svg" xmlns:xlink="http://www.w3.org/1999/xlink" x="0px" y="0px"
	 viewBox="0 0 361.29 354.07" style="enable-background:new 0 0 361.29 354.07;" xml:space="preserve">
<style type="text/css">
	.st0{fill:#EEDBBD;}
	.st1{fill:#775F81;}
	.st2{fill:#ECD7B7;}
	.st3{fill:#607CB1;}
	.st4{fill:#333332;}
	.st5{fill:#342424;}
	.st6{fill:#495683;}
	.st7{fill:#8E503F;}
	.st8{fill:#E94955;}
	.st9{fill:#5F150A;}
	.st10{fill:#E4946E;}
	.st11{fill:#D17C5A;}
	.st12{fill:#F3B558;}
	.st13{fill:#D49743;}
	.st14{fill:#644947;}
	.st15{fill:#AEBECC;}
	.st16{fill:#6B4F4E;}
	.st17{fill:#1A1A1A;}
	.st18{fill:#483333;}
	.st19{fill:#E3926E;}
	.st20{fill:#8FA0B2;}
	.st21{fill:#BF6A4C;}
	.st22{fill:#FDFDFB;}
	.st23{fill:#4D668E;}
	.st24{fill:#434C76;}
	.st25{fill:#484F7B;}
	.st26{fill:#F68850;}
	.st27{fill:#FBFCFD;}
	.st28{fill:#C95D32;}
	.st29{fill:#FDFCFC;}
	.st30{fill:#F3864F;}
	.st31{fill:#FFFFFF;}
</style>
<g>
	<g>
		<g>
			<path class="st0" d="M268.75,106.15c4.67-4.79,4.27-12.48-0.8-16.77c-2.12-1.79-1.6-4.17-1.68-4.63v-3.96h-1.91
				c0-2.11-1.72-3.83-3.83-3.83c-2.11,0-3.83,1.72-3.83,3.83h-1.91v3.96c-0.08,0.47,0.45,2.83-1.69,4.65
				c-2.57,2.19-4.05,5.38-4.05,8.75C249.04,108.44,261.6,113.49,268.75,106.15L268.75,106.15z M260.53,78.87
				c1.06,0,1.91,0.86,1.91,1.91h-3.83C258.62,79.73,259.47,78.87,260.53,78.87z M256.7,82.7h7.66v2.04h-7.66V82.7z M254.33,90.85
				c1.28-1.09,2.09-2.58,2.31-4.19h2.93v6.82c-1.65,0.43-2.87,1.93-2.87,3.71h1.91c0-1.06,0.86-1.91,1.91-1.91s1.91,0.86,1.91,1.91
				h1.91c0-1.78-1.22-3.28-2.87-3.71v-6.82h2.93c0.22,1.61,1.03,3.1,2.3,4.18c6.74,5.71,2.73,16.63-5.91,16.87
				C251.78,107.96,247.48,96.67,254.33,90.85z"/>
		</g>
	</g>
	<g>
		<g>
			<rect x="259.7" y="-0.28" class="st0" width="1.66" height="77.23"/>
		</g>
	</g>
	<g>
		<g>
			<path class="st0" d="M301.31,140.41c4.67-4.79,4.27-12.48-0.8-16.77c-2.12-1.79-1.6-4.17-1.68-4.63v-3.96h-1.91
				c0-2.11-1.72-3.83-3.83-3.83s-3.83,1.72-3.83,3.83h-1.91v3.96c-0.08,0.47,0.45,2.83-1.69,4.65c-2.57,2.19-4.05,5.38-4.05,8.75
				C281.6,142.7,294.16,147.76,301.31,140.41L301.31,140.41z M293.09,113.14c1.06,0,1.91,0.86,1.91,1.91h-3.83
				C291.17,114,292.03,113.14,293.09,113.14z M289.26,116.97h7.66v2.04h-7.66V116.97z M286.89,125.11c1.28-1.09,2.09-2.58,2.31-4.19
				h2.93v6.82c-1.65,0.43-2.87,1.93-2.87,3.71h1.91c0-1.06,0.86-1.91,1.91-1.91c1.06,0,1.91,0.86,1.91,1.91h1.91
				c0-1.78-1.22-3.28-2.87-3.71v-6.82h2.93c0.22,1.61,1.03,3.1,2.3,4.18c6.74,5.71,2.73,16.63-5.91,16.87
				C284.34,142.23,280.04,130.94,286.89,125.11z"/>
		</g>
	</g>
	<g>
		<g>
			<rect x="292.26" y="0.67" class="st0" width="1.66" height="110.56"/>
		</g>
	</g>
	<g>
		<ellipse class="st1" cx="182.23" cy="320.24" rx="160" ry="8.82"/>
	</g>
	<g>
		<path class="st2" d="M75.84,280.28v-10.84h-5.36l-0.91-13.45l31.66-0.63c0,0-6.75-30.45-14.35-37.79c0,0,5.96,11.43,0.75,12.62
			s-5.8-16.97-5.8-16.97l-1.28-1.02c0,0-1.02,21.15-6.06,21.67c-5.03,0.51,1.88-20.13,1.88-20.13s-14.78,24.59-24.1,21.49
			c-9.32-3.11,21.99-26.08,21.99-26.08s-20,2.71-20.08-1.77c-0.08-4.47,23.59-1.7,23.59-1.7s-13.11-11.64-11.03-15.27
			c2.08-3.62,15.73,15.58,15.73,15.58s8.71,0.23,10.49,3.78s-8.02,1.93-8.02,1.93s9.94,11.49,13.45,25.91
			c3.51,14.42-5.83-49.16-24.82-91.41c0,0,6.78,20.61,1.53,20.94s-9.54-29.52-9.54-29.52s-0.08,39.79-8.49,39.15
			c-8.41-0.65,5.1-41.01,5.1-41.01s-27.74,47.31-34.05,42.22c-6.31-5.1,24.91-41.73,24.91-41.73s-26.2,21.03-32.59,16.74
			c-6.39-4.29,32.51-24.75,32.51-24.75s-33-4.37-30.25-9.79c2.75-5.42,33.32,5.66,33.32,5.66s-20.14-19.9-17.23-23.78
			c2.91-3.88,22.81,22.32,22.81,22.32s1.29-11.73,4.77-11.4c3.48,0.32,0.32,13.99,0.32,13.99s20.7,7.2,21.51,13.67
			c0.81,6.47-20.22-6.15-20.22-6.15s24.85,40.82,33.24,100.29c0,0-7.08-62.38,11.93-81.91c0,0-14.22-10.01-11.12-15.9
			c3.11-5.89,11.12,10.96,11.12,10.96s-1.25-23.61,5.37-28.07c6.62-4.46-2.57,28.07-2.57,28.07s17.57-34.42,23.65-33.88
			c6.08,0.54-21.21,34.59-21.21,34.59s38.78-29.73,48.51-25.54s-45.94,26.62-45.94,26.62s39.18-7.7,41.75,0.88
			c2.57,8.58-40.94,1.28-40.94,1.28s23.78,7.17,22.16,14.66c-1.62,7.5-24.86-12.76-24.86-12.76s7.43,19.04,2.84,19.18
			s-7.16-19.18-7.16-19.18s-18.66,23.67-9.56,103.95h27.1v14.57h-6.11v9.73H75.84z"/>
	</g>
	<g>
		<path class="st3" d="M262.51,246.6c0,0-6.66,40.8-18.18,46.05c0,0,10,13.83,10.81,29.79h-4.85c0,0-2.02-17.37-10.2-28.28
			c0,0-8.38,2.63-15.65,2.53l-1.11,1.41c0,0,6.97,19.39,8.28,26.66h-5.05c0,0-6.97-24.54-8.99-26.05l-59.68-1.52
			c0,0-6.36,17.27-5.25,25.95h-4.31c0,0,1.49-22.72,4.72-26.66l-32.5-4.59l-0.56-2.86l-1.62-8.18l-4.08-20.64l-0.01-0.01
			c-0.52-0.37-18.46-13.27-15.56-25.86c2.94-12.78,11.74-15.56,19.47-14.92c7.74,0.64,56.79-5.7,56.79-5.7l43.29-69.78
			c0,0,21.62-0.06,24.96,1.05c3.33,1.11,13.13,2.33,11.91,28.88c-1.21,26.56,11.11,52.91,11.92,54.63
			C267.86,230.24,271.3,239.94,262.51,246.6z"/>
	</g>
	<g>
		<path class="st4" d="M118.37,280.87l-4.08-20.64l3.85,3.35c0,0,0.09,11.21,0.71,15.3C118.96,279.58,118.77,280.24,118.37,280.87z"
			/>
	</g>
	<g>
		<path class="st4" d="M244.33,292.65c0,0,10,13.83,10.81,29.79h-4.85c0,0-2.02-17.37-10.2-28.28c0,0-8.38,2.63-15.65,2.53
			l-1.11,1.41c0,0,6.97,19.39,8.28,26.66h-5.05c0,0-6.97-24.54-8.99-26.05l-59.68-1.52c0,0-6.36,17.27-5.25,25.95h-4.31
			c0,0,1.49-22.72,4.72-26.66l-32.5-4.59l-0.56-2.86c4.13,0.4,11.06,1.2,21.7,2.75c19.77,2.87,77.21,3.34,77.21,3.34
			c12.7-3.28,23.02-36.38,23.02-36.38s12.46-10.12,14.41-11.6c1.95-1.48,6.19-0.55,6.19-0.55S255.85,287.4,244.33,292.65z"/>
	</g>
	<g>
		<polygon class="st5" points="143.79,220.05 181.35,244.93 201.27,222.03 		"/>
	</g>
	<g>
		<path class="st3" d="M230.33,291.77c0,0,13.54-19.79,15.19-31.54l10.77-8.04c0,0-5.76,27.5-12.98,36.65
			C243.31,288.84,235.98,291.92,230.33,291.77z"/>
	</g>
	<g>
		<path class="st6" d="M206.17,264.9c-0.01,0-0.02,0-0.03,0l-20.57-0.82c-0.38-0.02-0.68-0.34-0.66-0.72
			c0.02-0.38,0.33-0.68,0.72-0.66l20.57,0.82c0.38,0.02,0.68,0.34,0.66,0.72C206.85,264.6,206.54,264.9,206.17,264.9z"/>
	</g>
	<g>
		<path class="st6" d="M227.81,273.19c-3.9,0-8.54-0.39-12.28-1.86c-2.49-0.98-4.13-2.49-4.86-4.48c-1.23-3.35,0.6-6.8,0.68-6.95
			c0.18-0.34,0.6-0.46,0.94-0.28c0.34,0.18,0.46,0.6,0.28,0.94c-0.02,0.04-1.61,3.07-0.59,5.82c0.59,1.6,1.96,2.83,4.06,3.66
			c7.54,2.96,19.48,1.27,19.6,1.25c0.38-0.06,0.73,0.21,0.79,0.59c0.05,0.38-0.21,0.73-0.59,0.79
			C235.58,272.7,232.15,273.19,227.81,273.19z"/>
	</g>
	<g>
		<path class="st6" d="M216.67,268.43c-0.15,0-0.3-0.05-0.43-0.15c-0.3-0.24-0.35-0.67-0.11-0.97c0.13-0.17,3.43-4.24,14.64-9.28
			c8.21-3.69,14.32-9.78,18.78-14.23c1.57-1.57,2.93-2.93,4.15-3.95c3.94-3.32,8.72-5.39,11.63-5.04c1.11,0.13,1.95,0.59,2.51,1.36
			c0.23,0.31,0.16,0.74-0.15,0.97c-0.31,0.22-0.74,0.16-0.97-0.15c-0.33-0.45-0.84-0.71-1.55-0.8c-2.51-0.3-6.96,1.68-10.57,4.72
			c-1.17,0.98-2.51,2.32-4.06,3.87c-4.54,4.52-10.75,10.72-19.19,14.51c-10.84,4.87-14.09,8.84-14.12,8.88
			C217.08,268.34,216.88,268.43,216.67,268.43z"/>
	</g>
	<g>
		<path class="st6" d="M241.02,230.65c-0.19,0-0.38-0.08-0.52-0.23c-0.25-0.29-0.23-0.72,0.06-0.98c11.05-9.8,24.73-1.63,24.87-1.54
			c0.33,0.2,0.43,0.62,0.23,0.95c-0.2,0.33-0.62,0.43-0.95,0.23c-0.13-0.08-12.95-7.71-23.23,1.4
			C241.34,230.59,241.18,230.65,241.02,230.65z"/>
	</g>
	<g>
		<path class="st6" d="M119.6,263.21c-0.17,0-0.33-0.06-0.47-0.18c-0.28-0.26-0.3-0.69-0.05-0.98c0.2-0.22,4.96-5.34,18.15-6.75
			c0.38-0.04,0.72,0.23,0.76,0.62c0.04,0.38-0.23,0.72-0.61,0.76c-12.6,1.35-17.22,6.26-17.27,6.31
			C119.97,263.13,119.79,263.21,119.6,263.21z"/>
	</g>
	<g>
		<path class="st6" d="M151.97,262.5c0,0-0.01,0-0.01,0l-23.52-0.36c-0.38-0.01-0.69-0.32-0.68-0.7c0.01-0.38,0.31-0.68,0.69-0.68
			c0,0,0.01,0,0.01,0l23.52,0.36c0.38,0.01,0.69,0.32,0.68,0.7C152.66,262.2,152.35,262.5,151.97,262.5z"/>
	</g>
	<g>
		<g>
			
				<rect x="287.93" y="248.96" transform="matrix(0.7718 -0.6358 0.6358 0.7718 -117.8789 249.7571)" class="st1" width="2.22" height="80.31"/>
		</g>
	</g>
	<g>
		<g>
			
				<rect x="253.85" y="288.22" transform="matrix(0.6698 -0.7425 0.7425 0.6698 -117.5866 314.2223)" class="st1" width="81.33" height="2.22"/>
		</g>
	</g>
	<g>
		<g>
			<rect x="290.73" y="259.13" class="st1" width="2.22" height="61.59"/>
		</g>
	</g>
	<g>
		<rect x="257.05" y="246.74" class="st7" width="72.43" height="12.73"/>
	</g>
	<g>
		<g>
			<g>
				<path class="st8" d="M273.83,238.69c0,2.51,2.01,4.57,6.52,4.75c0.61,1.3,1.43,2.44,2.57,3.33h12.96
					c4.23-3.34,4.24-10.24,4.24-15h-21.43c0,0.73,0,1.52,0.02,2.33C275.34,234.66,273.83,236.5,273.83,238.69z M293.15,244.87
					c0,0,2.53-7.01,1.03-11.44h3.35C297.53,233.43,298.62,240.67,293.15,244.87z M276.59,238.74c-0.02-1.2,0.32-2.12,2.2-2.56
					c0.11,1.72,0.33,3.5,0.79,5.15C277,241.02,276.61,240.1,276.59,238.74z"/>
			</g>
		</g>
	</g>
	<g>
		<path class="st9" d="M223.52,121.55c-2.77-6.24-7.92-6.42-10.95-2.42c-3.03,4,6.4,12.81,6.4,12.81S229.03,133.96,223.52,121.55z"
			/>
	</g>
	<g>
		<path class="st9" d="M191.09,127.86c0,0-6.78-6.66-1.13-12.44s12.56-1.63,12.56-1.63s0.63-4.4,6.03-4.9s5.03,10.55,6.16,12.56
			c1.13,2.01,19.98,31.91,11.31,43.34l-41.96-7.66c0,0,2.14-10.93,5.78-13.44L191.09,127.86z"/>
	</g>
	<g>
		<path class="st10" d="M215.01,136.84c-2.3,4.79-6.39,2.29-6.39,2.29l-1.53,4.47v2.75c-5.75,8.56-14.57,4.92-14.57,4.92l-0.29-2.01
			l-0.29-2.02c-1.16-0.04-2.39-0.4-3.41-0.95c-2.16-1.16-2.73-3.51-2.9-5.82c-0.23-3.01,0.5-6.04,1.65-8.8
			c0.55-1.33,1.46-2.54,1.99-3.85c0-0.01,2.94-7.28,8.24-8.56c0,0,2.05-0.84,3.48,1.61c1.43,2.46,3.85,2.95,5.65,3.48
			c1.8,0.54,1.8,4.71,1.43,7.45c-0.37,2.75,1.51,3.4,1.56,2.17c0.03-0.95,1.13-1.65,1.86-2.07c0.85-0.49,1.69-0.46,2.58,0.02
			C215.85,132.91,215.77,135.24,215.01,136.84z"/>
	</g>
	<g>
		<path class="st11" d="M204.64,143.1c0,0-2.41,4.52-12.41,6.16l-0.29-2.02C191.94,147.25,199.41,147.57,204.64,143.1z"/>
	</g>
	<g>
		<path class="st12" d="M191.35,150.4c0,0-1.28,1.59-0.75,2.64c0.53,1.06,0.88,2.33-0.92,2.6c-1.81,0.26-15.64,5.94-18.7,11.94
			s-4.89,16.61-6.43,22.24c-1.54,5.63-7.68,29.63-7.68,29.63l61.68-0.8c0,0-1.76-14.78-1.46-18.15s2.78-11.34,2.78-11.34l5.12,8.41
			l16.76,21.88c0,0,7.54-6.07,1.76-14.85c0,0-0.44-4.02,0.8-5.41c1.24-1.39-4.17-13.61-4.17-13.61l-10.98-20.78
			c0,0-16.02-10.98-17.41-12.22c-1.39-1.24,0.48-2.32-2.22-3.72c0,0,0.66-4.2-2.44-4.89c0,0-1.3,2.98-2.84,4.17
			c-1.55,1.19-4.69,3.19-8.23,3.02s-3.41-1.29-3.41-1.29S191.82,149.68,191.35,150.4z"/>
	</g>
	<g>
		<path class="st13" d="M164.89,204.21c-0.03,0-0.06-0.01-0.1-0.02c-0.14-0.05-0.22-0.21-0.16-0.36l10.09-27.52
			c0.05-0.14,0.21-0.22,0.36-0.16c0.14,0.05,0.22,0.21,0.16,0.36l-10.09,27.52C165.11,204.14,165,204.21,164.89,204.21z"/>
	</g>
	<g>
		<path class="st13" d="M182.09,210.66c-0.05,0-0.1-0.01-0.15-0.04c-0.13-0.08-0.17-0.25-0.09-0.38c1.07-1.74,2.17-3.59,2.77-5.53
			c0.31-1.02,0.25-2.14,0.18-3.23c-0.03-0.43-0.05-0.86-0.05-1.28c-0.02-2.64,0.65-4.86,1.36-7.22c0.14-0.46,0.28-0.93,0.42-1.41
			c0.52-1.8,0.97-3.99,1.41-6.1c0.31-1.49,0.59-2.9,0.91-4.16c0.04-0.15,0.18-0.24,0.33-0.2c0.15,0.04,0.24,0.19,0.2,0.33
			c-0.31,1.26-0.6,2.66-0.9,4.14c-0.44,2.12-0.89,4.32-1.42,6.14c-0.14,0.48-0.28,0.95-0.42,1.41c-0.7,2.32-1.36,4.5-1.34,7.06
			c0,0.41,0.03,0.83,0.05,1.25c0.07,1.14,0.14,2.32-0.21,3.43c-0.62,2-1.73,3.89-2.82,5.66
			C182.28,210.61,182.19,210.66,182.09,210.66z"/>
	</g>
	<g>
		<path class="st13" d="M207.42,213.11c-0.04,0-0.09-0.01-0.13-0.03c-0.27-0.14-6.55-3.56-8.43-4.96c-2-1.5-7.35-4.8-13.9-3.07
			c-0.15,0.04-0.3-0.05-0.34-0.2c-0.04-0.15,0.05-0.3,0.2-0.34c6.78-1.79,12.31,1.61,14.37,3.16c1.85,1.38,8.3,4.89,8.36,4.92
			c0.13,0.07,0.18,0.24,0.11,0.38C207.61,213.06,207.51,213.11,207.42,213.11z"/>
	</g>
	<g>
		<path class="st13" d="M219.86,189.44c-0.1,0-0.2-0.06-0.25-0.15l-3.19-6.37c-0.07-0.14-0.01-0.3,0.12-0.37
			c0.14-0.07,0.3-0.01,0.37,0.12l3.19,6.37c0.07,0.14,0.01,0.3-0.12,0.37C219.95,189.43,219.9,189.44,219.86,189.44z"/>
	</g>
	<g>
		<path class="st13" d="M217.77,181.42c-0.02,0-0.03,0-0.05,0c-0.15-0.03-0.25-0.17-0.22-0.32c1.41-7.93,11.07-16.16,11.48-16.51
			c0.12-0.1,0.29-0.08,0.39,0.03c0.1,0.12,0.08,0.29-0.03,0.39c-0.1,0.08-9.91,8.45-11.29,16.18
			C218.02,181.32,217.9,181.42,217.77,181.42z"/>
	</g>
	<g>
		<path class="st13" d="M202.54,153.67c-0.02,0-0.04,0-0.04,0c-0.15,0-0.27-0.13-0.27-0.28c0-0.15,0.13-0.27,0.28-0.27
			c0.05,0,3.7,0.04,6.78-4.42c0.09-0.13,0.26-0.16,0.39-0.07c0.13,0.09,0.16,0.26,0.07,0.39C206.64,153.52,203,153.67,202.54,153.67
			z"/>
	</g>
	<g>
		<path class="st13" d="M199.96,157.52c-2.48,0-4.25-0.5-4.29-0.51c-0.15-0.04-0.23-0.2-0.19-0.34c0.04-0.15,0.2-0.23,0.34-0.19
			c0.09,0.03,9.48,2.68,15.27-4.61c0.1-0.12,0.27-0.14,0.39-0.04c0.12,0.1,0.14,0.27,0.04,0.39
			C208.05,156.59,203.34,157.52,199.96,157.52z"/>
	</g>
	<g>
		<path class="st13" d="M241.91,201.67c-0.12,0-0.24-0.08-0.27-0.21c-0.05-0.2-1.35-4.91-10.55-3.64c-0.15,0.02-0.29-0.08-0.31-0.24
			c-0.02-0.15,0.08-0.29,0.24-0.31c9.73-1.34,11.11,3.84,11.16,4.06c0.04,0.15-0.06,0.3-0.2,0.33
			C241.96,201.67,241.93,201.67,241.91,201.67z"/>
	</g>
	<g>
		<path class="st14" d="M182.09,210.38c0,0,8.2,0.31,11.86,2.11c3.66,1.8,10.18,6.34,10.18,6.34l-5.91,3.6L170.98,221l5-4.05
			C175.97,216.95,181.6,213.92,182.09,210.38z"/>
	</g>
	<g>
		<polygon class="st15" points="164.53,215.36 201.27,220.46 167.74,224.74 		"/>
	</g>
	<g>
		<path class="st16" d="M234.61,233.58c-4.55,3.04-20.27,17.23-20.27,17.23l-33.93-3.13l0.92-6.79l16.87-18.46l3.05-0.4v-1.57
			l-1.08,0.12l18.17-17.15c0,0,15.8-6.64,21.34,4.08C245.24,218.22,239.17,230.54,234.61,233.58z"/>
	</g>
	<g>
		<path class="st17" d="M185.6,258.34c0,0-2.26,12.39-8.11,13.27c-1.55-3.48,1.89-12.96,1.89-12.96L185.6,258.34z"/>
	</g>
	<g>
		<path class="st16" d="M111.95,223.86c-3.87,11.3-0.1,19.66,6.76,23.93c6.87,4.27,58.78,23.82,58.78,23.82s4.15-24.55,8.78-27.47
			l-6.51-4.3c0,0-13.41-9.43-26.2-14.64C142.05,220.53,115.69,212.94,111.95,223.86z"/>
	</g>
	<g>
		<path class="st18" d="M215.69,246.08l-0.71-0.85c0.18-0.15,18.4-15.44,20.39-17.23l0.74,0.82
			C234.11,230.63,216.44,245.45,215.69,246.08z"/>
	</g>
	<g>
		<path class="st18" d="M186.07,244.66c-0.26-0.1-26.14-10.14-33.84-14.22c-7.7-4.08-15.68-9.47-15.76-9.53l0.62-0.92
			c0.08,0.05,8.02,5.41,15.66,9.47c7.64,4.05,33.46,14.07,33.72,14.17L186.07,244.66z"/>
	</g>
	<g>
		<path class="st18" d="M160.86,234.38c-0.22,0-0.43-0.13-0.52-0.35c-1.41-3.65-9.39-8.22-9.47-8.26c-0.27-0.15-0.36-0.49-0.21-0.76
			c0.15-0.27,0.49-0.36,0.76-0.21c0.34,0.19,8.4,4.81,9.95,8.83c0.11,0.29-0.03,0.61-0.32,0.72
			C160.99,234.37,160.92,234.38,160.86,234.38z"/>
	</g>
	<g>
		<path class="st19" d="M186.27,244.15l17.01,4.12c0,0,2.84-3.29,6.86-2.74s8.75,1.23,8.75,1.23s-7.2,9.19-6.93,13.48
			c0,0-2.19-2.56-7.13-2.1c-4.93,0.46-25,2.1-25,2.1S182.87,246.15,186.27,244.15z"/>
	</g>
	<g>
		<polygon class="st16" points="201.27,220.46 201.27,222.03 198.22,222.43 200.19,220.58 		"/>
	</g>
	<g>
		<polygon class="st20" points="200.19,220.58 198.22,222.43 169.16,226.31 121.46,219.45 108.61,178.61 159.16,183.14 
			169.44,224.03 		"/>
	</g>
	<g>
		<path d="M184.06,176.61c0,0,4.8,3.05,5.04,4.48c0.24,1.43-2.07,3.02-4.43,1.27C182.3,180.62,184.06,176.61,184.06,176.61z"/>
	</g>
	<g>
		<path class="st10" d="M174.98,176.42c0,0,3.74-9.27,4.09-13.22c0.36-3.95-0.07-9.41,2.37-13.15c2.44-3.74,3.45-7.83,3.45-7.83
			s1.02-0.72,0.69,2.37c-0.33,3.09-1,4.59-1.08,6.64s-0.16,2.56-0.16,2.56s2.49-2.76,4.85-0.32s3.1,3.12,4.24,3.31
			s-1.91,0.99-3.64,0.28c0,0,1.52,1.71,3.64,1.93s0.07,1.85-1.49,1.58s-3.93-1.3-3.93-1.3s2.8,2.6,3.59,2.88s-2.01,1.78-4.77-0.51
			c0,0,1.1,3.43-0.79,5.48c0,0-0.56,1.93-0.46,5.56s-0.92,9.67-0.92,9.67S176.86,176.35,174.98,176.42z"/>
	</g>
	<g>
		<path class="st10" d="M223.06,196.71c0,0,3.28-3.93,6.88-0.33c0,0,3.74-0.79,4.85,2.56c0,0,2.95,1.64,3.15,4.06
			c0.2,2.43-3.15,8-7.44,7.01c0,0-1.61,2.49-4.75,1.25c0,0-1.9,1.05-2.69,0.66c-0.79-0.39,0-3.28,0-3.28s-2.69-0.66-2.03-2.36
			c0.66-1.7,1.7-3.28,1.7-3.28s-3.8,1.51-6.03,0.85c-2.23-0.66,0.07-0.59,2.23-2.36S223.06,196.71,223.06,196.71z"/>
	</g>
	<g>
		<g>
			
				<rect x="220.62" y="204.46" transform="matrix(0.4394 -0.8983 0.8983 0.4394 -57.7968 316.8614)" class="st21" width="8.68" height="0.55"/>
		</g>
	</g>
	<g>
		<g>
			
				<rect x="223.23" y="206.72" transform="matrix(0.4843 -0.8749 0.8749 0.4843 -63.4706 306.3132)" class="st21" width="9.74" height="0.55"/>
		</g>
	</g>
	<g>
		<g>
			
				<rect x="228.83" y="206.82" transform="matrix(0.5079 -0.8614 0.8614 0.5079 -64.1179 301.958)" class="st21" width="6.77" height="0.55"/>
		</g>
	</g>
	<g>
		<g>
			<path class="st9" d="M204.8,128.89c-0.22,0-0.42-0.13-0.51-0.34c-0.44-1.04-3.01-2.36-4.53-2.94c-0.29-0.11-0.43-0.43-0.32-0.72
				c0.11-0.29,0.43-0.43,0.72-0.32c0.45,0.17,4.39,1.73,5.15,3.55c0.12,0.28-0.01,0.61-0.3,0.73
				C204.95,128.87,204.88,128.89,204.8,128.89z"/>
		</g>
	</g>
	<g>
		<g>
			<path d="M202.22,132.09c-0.18,0-0.36-0.09-0.47-0.25c-1.25-1.93-2.88-1.07-3.06-0.97c-0.26,0.15-0.6,0.06-0.76-0.2
				c-0.15-0.26-0.07-0.6,0.2-0.75c0.92-0.55,3.07-0.97,4.55,1.32c0.17,0.26,0.09,0.6-0.16,0.77
				C202.43,132.06,202.33,132.09,202.22,132.09z"/>
		</g>
	</g>
	<g>
		<g>
			<path d="M189.08,130.19c-0.09,0-0.19-0.02-0.27-0.07c-0.26-0.15-0.36-0.49-0.21-0.75c0.44-0.78,1.85-2.01,4.06-1.11
				c0.28,0.12,0.42,0.44,0.3,0.72c-0.12,0.28-0.44,0.42-0.72,0.3c-1.8-0.73-2.59,0.49-2.68,0.63
				C189.45,130.09,189.27,130.19,189.08,130.19z"/>
		</g>
	</g>
	<g>
		<g>
			<path class="st9" d="M190.33,126.26c-0.19,0-0.38-0.1-0.48-0.28c-0.15-0.27-0.06-0.6,0.21-0.76c1.83-1.04,4.16-0.7,4.26-0.68
				c0.3,0.05,0.51,0.33,0.46,0.63c-0.05,0.3-0.33,0.51-0.63,0.46c-0.02,0-2.05-0.3-3.54,0.55
				C190.51,126.23,190.42,126.26,190.33,126.26z"/>
		</g>
	</g>
	<g>
		<g>
			<path class="st21" d="M194.09,135.46c-0.23-0.12-2.22-1.22-2.24-2.4c-0.01-0.45,0.25-0.83,0.77-1.14
				c1.86-1.09,1.84-4.67,1.84-4.71l0.55-0.01c0,0.16,0.02,3.94-2.12,5.19c-0.5,0.29-0.49,0.56-0.49,0.65
				c0.01,0.65,1.2,1.52,1.95,1.92L194.09,135.46z"/>
		</g>
	</g>
	<g>
		<path class="st22" d="M192.88,140.88c-2.51,0.38-4-4.24-4-4.24s5.11,0.75,7.72,0.51S196.28,140.37,192.88,140.88z"/>
	</g>
	<g>
		<path class="st23" d="M60.58,284.43c0,0-14.48,1.68-16.96,8.16c-2.48,6.48-3.45,31.02-3.45,31.02s83.69,6.2,104.79,0
			c0,0,1.85-31.06-12-37.38C126.48,283.27,60.58,284.43,60.58,284.43z"/>
	</g>
	<g>
		<path class="st24" d="M47.42,291.65c0,0,46.71,8.12,87.96,0.03"/>
	</g>
	<g>
		<path class="st25" d="M105.2,319.72c0,0,2.25,5.25,5.53,4.82c3.28-0.43,5.88-8.02,7.58-14.73c1.7-6.71,6.12-11.53,6.12-11.53
			s-11.81,4.98-13.86,7.94S105.2,319.72,105.2,319.72z"/>
	</g>
	<g>
		<path class="st26" d="M127.91,295.96c-7.59,8.81-12.47,6.03-14.09,13.34c-1.63,7.32-3.59,12-7.39,11.32
			c-3.79-0.68-5.87-3.86-4.9-9.69c0.97-5.83,4.77-11.04,12.76-13.89c7.99-2.84,14.9-5.62,10.3-10.63c0,0-2.85,7.25-10.57,7.38
			c-7.72,0.14-13.69,0.07-13.69,0.07s-1.89,3.72-4.81,3.32c-2.73-0.38-3.26-1.71-3.31-1.87c-0.01-0.01-0.01-0.01-0.01-0.02H76.08
			l-3.38-16.34c0,0,5.89-3.59,7.59-5.15c1.69-1.56,19.37-11.79,31.5-6.16c12.12,5.62,11.38,13.82,11.38,13.82
			S135.5,287.16,127.91,295.96z"/>
	</g>
	<g>
		<path class="st27" d="M100.33,293.86c0,0-1.89,3.72-4.81,3.32c-2.73-0.38-3.26-1.71-3.31-1.87c-0.01-0.01-0.01-0.01-0.01-0.02
			c-0.74-5.02,3.72-4.96,5.39-4.85C99.28,290.55,100.33,293.86,100.33,293.86z"/>
	</g>
	<g>
		<path class="st28" d="M92.2,295.71c-0.19,0-0.36-0.13-0.41-0.33c-0.41-1.91-0.24-3.3,0.51-4.25c0.89-1.13,2.39-1.31,3.74-1.35
			c2.18-0.05,4.54-1.49,7.43-4.54c3.34-3.52,9.28-6.08,9.53-6.18c0.21-0.09,0.45,0.01,0.54,0.22c0.09,0.21-0.01,0.46-0.22,0.55
			c-0.06,0.03-6.03,2.6-9.26,5.99c-3.05,3.21-5.6,4.74-8.01,4.79c-1.16,0.03-2.43,0.17-3.11,1.03c-0.58,0.73-0.69,1.93-0.35,3.56
			c0.05,0.22-0.1,0.44-0.32,0.49C92.26,295.71,92.23,295.71,92.2,295.71z"/>
	</g>
	<g>
		<path class="st28" d="M98.81,290.12c-0.08,0-0.16-0.02-0.23-0.07c-0.19-0.13-0.24-0.38-0.12-0.58c1.72-2.6-1.18-4.96-1.3-5.06
			c-0.73-0.58-3.8-4.55-4.15-5c-0.14-0.18-0.11-0.44,0.07-0.58c0.18-0.14,0.44-0.11,0.58,0.08c1.34,1.74,3.52,4.47,4.01,4.86
			c1.26,1.01,3.18,3.59,1.48,6.16C99.08,290.06,98.94,290.12,98.81,290.12z"/>
	</g>
	<g>
		<path class="st29" d="M96.38,282.26c0,0,9.41-1.62,9.98-0.82c0.56,0.8-5.34,6.08-5.34,6.08l-1.3,0.92c0,0,0.13-1.39-0.07-1.91
			c-0.2-0.53-1.5-2.17-2.25-2.96S96.38,282.26,96.38,282.26z"/>
	</g>
	<g>
		<path class="st30" d="M60.29,273.67c0,0-0.34,4.3,1.29,7.2c1.63,2.9-0.74,4.73-1.32,5.4c-0.58,0.68-3.49,3.86,2.94,6.57
			c6.44,2.71,15.58,3.12,20.53,1.49c0,0,5.89-0.95,7.25-4.67c1.36-3.73-6.44-18-8.88-18.05c-2.44-0.04-3.25,6.05-3.25,6.05
			s-8.27,0.68-9.42,0.41S60.97,272.04,60.29,273.67z"/>
	</g>
	<g>
		<path class="st28" d="M83.73,294.75c-0.2,0-0.38-0.14-0.41-0.35c-0.04-0.23,0.12-0.44,0.34-0.48c0.06-0.01,5.67-0.96,6.93-4.41
			c0.84-2.3-2.39-9.82-5.62-14.51c-1.5-2.19-2.49-2.97-2.88-2.98c-1.7-0.03-2.63,4.21-2.83,5.69l-0.04,0.33l-0.33,0.03
			c-0.85,0.07-8.37,0.68-9.55,0.4c-0.22-0.05-0.36-0.28-0.31-0.5s0.28-0.36,0.5-0.31c0.77,0.18,5.66-0.12,8.96-0.39
			c0.22-1.4,1.15-6.08,3.59-6.08c0.01,0,0.02,0,0.03,0c0.84,0.01,2.03,1.14,3.55,3.34c3.08,4.48,6.74,12.45,5.71,15.27
			c-1.42,3.91-7.32,4.9-7.57,4.94C83.78,294.75,83.76,294.75,83.73,294.75z"/>
	</g>
	<g>
		<path class="st31" d="M83.17,280.79c-1.49,0-2.22,2.68-3.2,2.67c-0.98-0.01-4.54-0.01-4.85,2.32c-0.31,2.33,0.87,5.61,3.73,5.88
			s7.7-1.28,7.99-4.72c0.29-3.45-1.05-3.99-1.6-4.61C84.7,281.7,84.45,280.79,83.17,280.79z"/>
	</g>
	<g>
		<path class="st28" d="M77.79,280.69c-0.07,0-0.14-0.02-0.2-0.05c-0.2-0.11-0.27-0.37-0.16-0.57c0.01-0.02,0.85-1.52,1.02-2.48
			c0.04-0.23,0.26-0.38,0.48-0.34c0.23,0.04,0.38,0.25,0.34,0.48c-0.19,1.1-1.08,2.67-1.11,2.74
			C78.08,280.62,77.93,280.69,77.79,280.69z"/>
	</g>
	<g>
		<path class="st28" d="M62.7,283.67c-0.05,0-0.1-0.01-0.15-0.03c-0.21-0.08-0.32-0.33-0.23-0.54c1.11-2.78,3.22-4.23,3.3-4.29
			c0.19-0.13,0.45-0.08,0.58,0.11c0.13,0.19,0.08,0.45-0.11,0.58c-0.02,0.01-1.99,1.38-3,3.91
			C63.02,283.57,62.86,283.67,62.7,283.67z"/>
	</g>
	<g>
		<path class="st28" d="M69.58,289.19c-0.17,0-0.33-0.11-0.39-0.28c-0.73-2.07-3.8-1.5-3.83-1.5c-0.22,0.04-0.44-0.1-0.49-0.33
			c-0.04-0.23,0.1-0.44,0.33-0.49c1.31-0.25,3.99-0.16,4.77,2.04c0.08,0.22-0.04,0.45-0.25,0.53
			C69.67,289.18,69.62,289.19,69.58,289.19z"/>
	</g>
	<g>
		<path class="st28" d="M78.08,289.19c-0.09,0-0.19-0.03-0.27-0.1c-0.17-0.15-0.2-0.4-0.05-0.58c0.06-0.07,1.49-1.74,5.31-1.07
			c0.23,0.04,0.38,0.25,0.34,0.48c-0.04,0.23-0.26,0.38-0.48,0.34c-3.31-0.58-4.48,0.73-4.53,0.78
			C78.31,289.14,78.19,289.19,78.08,289.19z"/>
	</g>
	<g>
		<path d="M69.86,290.1c0,0,5.93,0.4,7.02-0.15c1.09-0.55-1.45,2.22-2.07,2.73s-1.78,1.16-2.73,0.36
			C71.14,292.24,70.04,290.9,69.86,290.1z"/>
	</g>
</g>
</svg>
